<?xml version="1.0" encoding="UTF-8" standalone="no"?>
<svg width="83px" height="83px" viewBox="0 0 83 83" version="1.1" xmlns="http://www.w3.org/2000/svg" xmlns:xlink="http://www.w3.org/1999/xlink">
    <!-- Generator: Sketch 49 (51002) - http://www.bohemiancoding.com/sketch -->
    <title>confidence/payment copy</title>
    <desc>Created with Sketch.</desc>
    <defs></defs>
    <g id="confidence/payment-copy" stroke="none" stroke-width="1" fill="none" fill-rule="evenodd">
        <g id="Page-1" transform="translate(0.000000, 5.000000)" fill="#000000">
            <path d="M76.5952,51.2332 L64.1502,53.4272 L64.1502,46.7192 L72.6602,45.2192 L70.3652,32.2072 L51.8812,35.4662 L51.8812,28.7582 L78.5122,24.0622 L81.9542,43.5802 C82.5872,47.1732 80.1882,50.5992 76.5952,51.2332 Z M57.5432,36.8062 L51.8812,36.8062 L51.8812,36.4252 L52.0452,36.3962 L69.6002,33.3002 L71.5662,44.4532 L64.1502,45.7612 L64.1502,43.4122 C64.1502,39.7642 61.1922,36.8062 57.5432,36.8062 Z M63.2062,45.9272 L63.2062,46.7192 L63.2062,53.4272 L63.2062,54.5522 L63.2062,67.9492 C63.2062,71.0722 60.6662,73.6122 57.5432,73.6122 L23.5692,73.6122 C20.4462,73.6122 17.9062,71.0722 17.9062,67.9492 L17.9062,62.5402 L17.9062,61.7482 L17.9062,43.4122 C17.9062,40.2902 20.4462,37.7502 23.5692,37.7502 L29.2312,37.7502 L30.1752,37.7502 L57.5432,37.7502 C60.6662,37.7502 63.2062,40.2902 63.2062,43.4122 L63.2062,45.9272 Z M47.1622,28.1942 L47.1622,36.8062 L33.9502,36.8062 L33.9502,28.1942 C33.9502,24.6172 36.9782,21.7062 40.5562,21.7062 C44.1342,21.7062 47.1622,24.6172 47.1622,28.1942 Z M40.5562,20.7622 C36.4512,20.7622 33.0062,24.0902 33.0062,28.1942 L33.0062,36.8062 L30.1752,36.8062 L30.1752,32.7522 L30.1752,32.5862 L30.1752,31.7942 L30.1752,28.5482 C30.1752,28.2002 30.1932,27.8572 30.2242,27.5182 C30.2432,27.3222 30.2752,27.1292 30.3042,26.9352 C30.3232,26.8012 30.3382,26.6652 30.3622,26.5322 C30.4112,26.2712 30.4732,26.0122 30.5412,25.7562 C30.5552,25.7002 30.5672,25.6432 30.5822,25.5882 C30.6672,25.2872 30.7632,24.9902 30.8732,24.6982 C30.8752,24.6932 30.8772,24.6882 30.8792,24.6832 C31.3392,23.4672 32.0192,22.3392 32.8952,21.3602 L33.2492,21.1212 C33.4272,20.9422 33.6112,20.7622 33.8012,20.7622 L33.8042,20.7622 L33.9972,20.4442 C34.6192,19.9282 35.2912,19.4222 35.9962,19.0722 C36.1052,19.0192 36.2122,18.9222 36.3232,18.8722 C36.4662,18.8082 36.6122,18.7322 36.7582,18.6742 C36.9192,18.6112 37.0812,18.5392 37.2462,18.4832 C37.3742,18.4402 37.5042,18.3962 37.6342,18.3582 C37.8242,18.3022 38.0172,18.2502 38.2122,18.2052 C38.3322,18.1772 38.4512,18.1492 38.5722,18.1252 C38.7922,18.0832 39.0152,18.0502 39.2402,18.0222 C39.3442,18.0092 39.4472,17.9922 39.5512,17.9822 C39.8812,17.9512 40.2162,17.9312 40.5562,17.9312 C40.8802,17.9312 41.1982,17.9512 41.5132,17.9802 C41.6902,17.9962 41.8662,18.0222 42.0412,18.0482 C42.1592,18.0642 42.2762,18.0812 42.3922,18.1022 C42.6332,18.1462 42.8732,18.1962 43.1122,18.2582 C43.1372,18.2642 43.1622,18.2712 43.1872,18.2772 C43.4592,18.3492 43.7292,18.4312 43.9972,18.5252 L44.1732,18.5872 C44.5722,18.7362 44.9602,18.9052 45.3332,19.1002 L45.4262,19.1502 C46.2052,19.5682 46.9132,20.0812 47.5462,20.6662 C47.5802,20.6982 47.6142,20.7292 47.6472,20.7612 C47.9512,21.0502 48.2392,21.3532 48.5042,21.6762 C48.5052,21.6762 48.5052,21.6772 48.5062,21.6782 C49.0542,22.3432 49.5152,23.0792 49.8852,23.8652 C49.9032,23.9022 49.9202,23.9392 49.9372,23.9762 C50.4832,25.1722 50.8192,26.4842 50.9032,27.8642 L50.9092,27.9572 C50.9192,28.1542 50.9372,28.3482 50.9372,28.5482 L50.9372,28.7582 L50.9372,35.4662 L50.9372,36.5912 L50.9372,36.8062 L48.1062,36.8062 L48.1062,28.1942 C48.1062,24.0902 44.6612,20.7622 40.5562,20.7622 Z M16.9622,61.7482 L15.2542,62.0492 C14.8662,62.1182 14.4802,62.1512 14.0992,62.1512 C10.9542,62.1512 8.1662,59.8952 7.6012,56.6902 L1.0462,19.5142 C0.4122,15.9212 2.8122,12.4952 6.4052,11.8612 L67.7452,1.0452 C68.1342,0.9772 68.5192,0.9442 68.9002,0.9442 C72.0462,0.9442 74.8332,3.1992 75.3992,6.4042 L78.5092,24.0452 L78.3482,23.1332 L51.8452,27.8062 C51.8452,27.8062 51.8452,27.8062 51.8452,27.8062 C51.7512,26.2732 51.3722,24.8242 50.7562,23.5102 C50.7462,23.4892 50.7372,23.4682 50.7272,23.4472 C50.3122,22.5782 49.7992,21.7682 49.1932,21.0392 C49.1912,21.0372 49.1892,21.0352 49.1872,21.0332 C48.9022,20.6902 48.5942,20.3682 48.2722,20.0622 C48.2262,20.0182 48.1802,19.9762 48.1332,19.9332 C47.8122,19.6382 47.4772,19.3602 47.1232,19.1042 C47.1102,19.0952 47.0982,19.0842 47.0862,19.0752 C46.6992,18.7982 46.2942,18.5452 45.8722,18.3182 L76.5462,12.9102 L76.3822,11.9802 L44.3112,17.6352 C44.0472,17.5422 43.7782,17.4612 43.5052,17.3872 C43.4412,17.3702 43.3772,17.3532 43.3132,17.3372 C43.0782,17.2792 42.8422,17.2242 42.6012,17.1812 C42.4562,17.1542 42.3092,17.1342 42.1612,17.1132 C41.9812,17.0872 41.8022,17.0582 41.6192,17.0412 C41.2692,17.0082 40.9162,16.9872 40.5562,16.9872 C40.1832,16.9872 39.8172,17.0082 39.4552,17.0432 C39.3292,17.0552 39.2062,17.0772 39.0812,17.0932 C38.8492,17.1232 38.6182,17.1552 38.3912,17.1992 C38.2412,17.2282 38.0952,17.2642 37.9482,17.2982 C37.7542,17.3442 37.5602,17.3932 37.3702,17.4492 C37.2122,17.4952 37.0562,17.5452 36.9002,17.5982 C36.7312,17.6572 36.5632,17.7192 36.3982,17.7852 C36.2352,17.8502 36.0732,17.9152 35.9142,17.9872 C35.7682,18.0532 35.6272,18.1262 35.4852,18.1982 C35.3172,18.2832 35.1482,18.3662 34.9852,18.4592 C34.8772,18.5212 34.7742,18.5912 34.6682,18.6562 C34.2252,18.9292 33.7982,19.2262 33.3982,19.5572 C33.3972,19.5582 33.3962,19.5592 33.3942,19.5602 L2.0292,25.0912 L2.1932,26.0202 L32.1912,20.7302 C32.1912,20.7312 32.1912,20.7312 32.1912,20.7312 C31.9612,20.9882 31.7422,21.2552 31.5362,21.5332 C31.5352,21.5342 31.5342,21.5352 31.5342,21.5362 C31.3302,21.8102 31.1392,22.0932 30.9602,22.3852 C30.9512,22.3992 30.9432,22.4142 30.9352,22.4282 C30.7652,22.7072 30.6062,22.9932 30.4602,23.2882 C30.4402,23.3262 30.4242,23.3672 30.4052,23.4062 C30.2732,23.6792 30.1482,23.9562 30.0372,24.2422 C30.0082,24.3162 29.9852,24.3942 29.9572,24.4702 C29.8642,24.7262 29.7732,24.9832 29.6972,25.2472 C29.6612,25.3702 29.6362,25.4982 29.6042,25.6222 C29.5482,25.8472 29.4882,26.0712 29.4442,26.3022 C29.4072,26.4952 29.3862,26.6942 29.3582,26.8912 C29.3342,27.0622 29.3032,27.2302 29.2872,27.4042 C29.2512,27.7802 29.2312,28.1622 29.2312,28.5482 L29.2312,31.7942 L3.9962,36.2432 L4.1602,37.1732 L29.2312,32.7522 L29.2312,36.8062 L23.5692,36.8062 C19.9202,36.8062 16.9622,39.7642 16.9622,43.4122 L16.9622,61.7482 Z M82.8832,43.4162 L79.4422,23.8992 L79.4392,23.8812 L76.3282,6.2402 C75.6902,2.6242 72.5672,0.0002 68.9002,0.0002 C68.4612,0.0002 68.0172,0.0392 67.5822,0.1162 L6.2412,10.9322 C4.2552,11.2822 2.5242,12.3842 1.3672,14.0362 C0.2102,15.6882 -0.2338,17.6922 0.1162,19.6782 L6.6722,56.8542 C7.3092,60.4702 10.4332,63.0942 14.0992,63.0942 C14.5382,63.0942 14.9822,63.0552 15.4182,62.9782 L16.9622,62.7062 L16.9622,67.9492 C16.9622,71.5982 19.9202,74.5562 23.5692,74.5562 L57.5432,74.5562 C61.1922,74.5562 64.1502,71.5982 64.1502,67.9492 L64.1502,54.3862 L64.3142,54.3572 L76.7592,52.1622 C78.7452,51.8122 80.4762,50.7102 81.6322,49.0582 C82.7892,47.4062 83.2332,45.4022 82.8832,43.4162 Z" id="Fill-1"></path>
            <path d="M42.0418,54.4754 L43.2388,63.1014 C43.3168,63.6684 42.8768,64.1744 42.3038,64.1744 L38.8088,64.1744 C38.2358,64.1744 37.7948,63.6684 37.8738,63.1014 L39.0708,54.4754 C36.9218,53.7584 35.4488,51.5644 35.9278,49.0804 C36.2778,47.2694 37.7228,45.7894 39.5278,45.4084 C39.8768,45.3344 40.2208,45.2994 40.5558,45.2994 C43.1618,45.2994 45.2748,47.4124 45.2748,50.0184 C45.2748,52.1024 43.9158,53.8504 42.0418,54.4754 M40.5558,44.3564 C40.1498,44.3564 39.7388,44.3994 39.3328,44.4854 C37.1638,44.9434 35.4228,46.7184 35.0018,48.9024 C34.5058,51.4734 35.7618,53.9484 38.0358,55.0684 L36.9388,62.9714 C36.8638,63.5124 37.0268,64.0584 37.3848,64.4704 C37.7438,64.8824 38.2628,65.1184 38.8088,65.1184 L42.3038,65.1184 C42.8498,65.1184 43.3688,64.8824 43.7268,64.4704 C44.0858,64.0584 44.2488,63.5124 44.1738,62.9714 L43.0768,55.0674 C44.9838,54.1204 46.2188,52.1794 46.2188,50.0184 C46.2188,46.8964 43.6788,44.3564 40.5558,44.3564" id="Fill-4"></path>
        </g>
    </g>
</svg>