<?xml version="1.0" encoding="UTF-8"?>
<svg width="82px" height="81px" viewBox="0 0 82 81" version="1.1" xmlns="http://www.w3.org/2000/svg" xmlns:xlink="http://www.w3.org/1999/xlink">
    <!-- Generator: Sketch 48.2 (47327) - http://www.bohemiancoding.com/sketch -->
    <title>confidence/world copy</title>
    <desc>Created with Sketch.</desc>
    <defs>
        <polygon id="path-1" points="0 7.31585743e-05 81.233 7.31585743e-05 81.233 81.0147 0 81.0147"></polygon>
    </defs>
    <g id="Produto" stroke="none" stroke-width="1" fill="none" fill-rule="evenodd">
        <g id="Group-2" transform="translate(-683.000000, -66.000000)">
            <g id="confidence_bar" transform="translate(100.000000, 60.000000)">
                <g id="confidence/world-copy" transform="translate(583.000000, 6.000000)">
                    <g id="Page-1">
                        <mask id="mask-2" fill="white">
                            <use xlink:href="#path-1"></use>
                        </mask>
                        <g id="Clip-2"></g>
                        <path d="M51.8074,20.2581 L53.6004,18.4651 L52.3074,17.1721 L50.5144,18.9651 L51.8074,20.2581 Z M51.8074,21.4651 C51.6794,21.4651 51.5514,21.4161 51.4534,21.3191 L49.4534,19.3191 C49.2584,19.1231 49.2584,18.8071 49.4534,18.6121 L51.9534,16.1121 C52.1494,15.9161 52.4654,15.9161 52.6614,16.1121 L54.6614,18.1121 C54.8564,18.3071 54.8564,18.6231 54.6614,18.8191 L52.1614,21.3191 C52.0634,21.4161 51.9354,21.4651 51.8074,21.4651 Z M61.7854,12.3491 C66.0914,15.5151 69.6594,19.6271 72.1804,24.3781 C73.3044,22.3971 74.4194,20.4201 75.4404,18.4011 C76.5654,16.1891 77.6274,13.9471 78.4554,11.6441 C78.8744,10.4961 79.2304,9.3291 79.4534,8.1571 C79.6884,6.9941 79.7984,5.8031 79.5964,4.7381 C79.4074,3.6561 78.8124,2.8981 77.8544,2.3221 C76.9414,1.7601 75.8114,1.5341 74.6614,1.5271 C72.3404,1.5291 69.9664,2.2661 67.7134,3.1791 C65.4594,4.1291 63.2564,5.2601 61.1234,6.5201 C59.6554,7.3971 58.2164,8.3291 56.7884,9.2811 C58.3484,10.0711 59.8404,10.9721 61.2584,11.9751 L61.7854,12.3491 Z M75.3074,40.9651 C75.3074,39.9531 75.2544,38.9551 75.1684,37.9651 L69.5144,37.9651 L67.6614,39.8191 C67.4654,40.0141 67.1494,40.0141 66.9534,39.8191 L62.6004,35.4651 L52.8074,35.4651 L52.8074,51.9651 L61.3074,51.9651 C61.4404,51.9651 61.5674,52.0181 61.6614,52.1121 L64.1614,54.6121 C64.2544,54.7051 64.3074,54.8321 64.3074,54.9651 L64.3074,66.1921 C71.0684,59.8891 75.3074,50.9151 75.3074,40.9651 Z M61.2704,13.2101 L59.5144,14.9651 L61.1614,16.6121 C61.3564,16.8071 61.3564,17.1231 61.1614,17.3191 L55.0144,23.4651 L56.1614,24.6121 C56.3564,24.8071 56.3564,25.1231 56.1614,25.3191 L54.6614,26.8191 C54.5674,26.9121 54.4404,26.9651 54.3074,26.9651 L52.8074,26.9651 L52.8074,29.9651 L55.1004,29.9651 L59.4534,25.6121 C59.6494,25.4161 59.9654,25.4161 60.1614,25.6121 L63.8074,29.2581 L65.4534,27.6121 C65.6494,27.4161 65.9654,27.4161 66.1614,27.6121 L68.3074,29.7581 L68.3074,28.4651 C68.3074,28.1891 68.5314,27.9651 68.8074,27.9651 L72.7564,27.9651 C70.3414,22.0531 66.3364,16.9551 61.2704,13.2101 Z M40.8074,75.4651 C49.3994,75.4651 57.2614,72.3011 63.3074,67.0851 L63.3074,55.1721 L61.1004,52.9651 L52.3074,52.9651 C52.0314,52.9651 51.8074,52.7411 51.8074,52.4651 L51.8074,34.9651 C51.8074,34.6891 52.0314,34.4651 52.3074,34.4651 L62.8074,34.4651 C62.9404,34.4651 63.0674,34.5181 63.1614,34.6121 L67.3074,38.7581 L68.9534,37.1121 C69.0474,37.0181 69.1744,36.9651 69.3074,36.9651 L75.0684,36.9651 C74.7454,34.1861 74.0964,31.5051 73.1514,28.9651 L69.3074,28.9651 L69.3074,30.9651 C69.3074,31.1671 69.1854,31.3501 68.9984,31.4271 C68.9374,31.4531 68.8714,31.4651 68.8074,31.4651 C68.6774,31.4651 68.5494,31.4141 68.4534,31.3191 L65.8074,28.6721 L64.1614,30.3191 C63.9654,30.5141 63.6494,30.5141 63.4534,30.3191 L59.8074,26.6721 L55.6614,30.8191 C55.5674,30.9121 55.4404,30.9651 55.3074,30.9651 L52.3074,30.9651 C52.0314,30.9651 51.8074,30.7411 51.8074,30.4651 L51.8074,26.4651 C51.8074,26.1891 52.0314,25.9651 52.3074,25.9651 L54.1004,25.9651 L55.1004,24.9651 L53.9534,23.8191 C53.7584,23.6231 53.7584,23.3071 53.9534,23.1121 L60.1004,16.9651 L58.4534,15.3191 C58.2584,15.1231 58.2584,14.8071 58.4534,14.6121 L60.4444,12.6221 C58.9864,11.6091 57.4504,10.7001 55.8404,9.9181 C53.4604,11.5381 51.1204,13.2311 48.8074,14.9651 C50.8254,13.0861 52.9184,11.2841 55.0884,9.5721 C53.1544,8.6881 51.1244,7.9771 49.0194,7.4611 L43.6614,12.8191 C43.5674,12.9121 43.4404,12.9651 43.3074,12.9651 L40.8074,12.9651 L40.8074,15.4651 C40.8074,15.7411 40.5834,15.9651 40.3074,15.9651 L37.8074,15.9651 C37.5314,15.9651 37.3074,15.7411 37.3074,15.4651 L37.3074,11.9651 C37.3074,11.8321 37.3604,11.7051 37.4534,11.6121 L38.8074,10.2581 L38.8074,8.9651 L35.1824,8.9651 C34.9064,8.9651 34.6824,8.7411 34.6824,8.4651 L34.6824,7.0211 C30.7914,7.7211 27.1264,9.0741 23.8034,10.9651 L28.3074,10.9651 C28.5094,10.9651 28.6924,11.0871 28.7694,11.2741 C28.8474,11.4611 28.8044,11.6751 28.6614,11.8191 L24.0144,16.4651 L25.8074,18.2581 L28.4534,15.6121 C28.6494,15.4161 28.9654,15.4161 29.1614,15.6121 L31.6614,18.1121 C31.8564,18.3071 31.8564,18.6231 31.6614,18.8191 C31.4654,19.0141 31.1494,19.0141 30.9534,18.8191 L28.8074,16.6721 L26.1614,19.3191 C26.0634,19.4161 25.9354,19.4651 25.8074,19.4651 C25.6794,19.4651 25.5514,19.4161 25.4534,19.3191 L22.9534,16.8191 C22.7584,16.6231 22.7584,16.3071 22.9534,16.1121 L27.1004,11.9651 L22.3074,11.9651 C22.2664,11.9651 22.2294,11.9511 22.1914,11.9421 C17.8044,14.7651 14.0924,18.5491 11.3654,23.0021 C11.3654,23.0111 11.3694,23.0191 11.3694,23.0281 L11.3694,36.2581 L14.9424,39.8301 C15.1374,40.0261 15.1374,40.3421 14.9424,40.5371 C14.8444,40.6351 14.7164,40.6841 14.5884,40.6841 C14.4604,40.6841 14.3324,40.6351 14.2354,40.5371 L10.5164,36.8191 C10.4224,36.7251 10.3694,36.5981 10.3694,36.4651 L10.3694,24.7431 C7.7804,29.5821 6.3074,35.1041 6.3074,40.9651 C6.3074,45.9141 7.3634,50.6191 9.2474,54.8781 C12.3954,50.5891 15.8034,46.5121 19.3344,42.5571 C19.8244,42.0081 20.6654,41.9611 21.2144,42.4501 C21.7624,42.9401 21.8104,43.7811 21.3204,44.3301 C21.3094,44.3431 21.2924,44.3621 21.2804,44.3731 C17.4004,48.3771 13.6474,52.5091 10.2144,56.8831 C14.5084,65.1021 22.0134,71.3831 31.0574,74.0531 L31.0574,68.4221 L23.4534,60.8191 C23.3604,60.7251 23.3074,60.5981 23.3074,60.4651 L23.3074,49.9651 C23.3074,49.8321 23.3604,49.7051 23.4534,49.6121 L25.9534,47.1121 C26.1494,46.9161 26.4654,46.9161 26.6614,47.1121 L34.5144,54.9651 L41.3074,54.9651 C41.5834,54.9651 41.8074,55.1891 41.8074,55.4651 L41.8074,68.4651 C41.8074,68.5981 41.7544,68.7251 41.6614,68.8191 L35.4354,75.0441 C37.1864,75.3201 38.9804,75.4651 40.8074,75.4651 Z M32.0574,68.2151 L32.0574,74.3381 C32.8054,74.5331 33.5644,74.7001 34.3304,74.8471 C34.3514,74.7611 34.3874,74.6781 34.4534,74.6121 L40.8074,68.2581 L40.8074,55.9651 L34.3074,55.9651 C34.1744,55.9651 34.0474,55.9121 33.9534,55.8191 L26.3074,48.1721 L24.3074,50.1721 L24.3074,60.2581 L31.9114,67.8621 C32.0044,67.9551 32.0574,68.0821 32.0574,68.2151 Z M24.2524,72.3551 C18.0264,69.0581 12.8914,63.9681 9.5464,57.7721 C8.0584,59.7151 6.6384,61.7061 5.3464,63.7731 C3.9054,66.1401 2.5774,68.6001 1.7614,71.2091 C1.3574,72.5111 1.1034,73.8531 1.1194,75.1781 C1.1454,76.4971 1.5164,77.7951 2.3384,78.8031 C3.0954,79.8491 4.4104,80.2331 5.7584,80.2381 C7.1094,80.2561 8.4814,79.9651 9.8164,79.5901 C12.4904,78.8051 15.0574,77.6221 17.5444,76.3191 C19.8404,75.1091 22.0664,73.7631 24.2524,72.3551 Z M40.8074,6.4651 C39.0664,6.4651 37.3554,6.5971 35.6824,6.8481 L35.6824,7.9651 L39.3074,7.9651 C39.5834,7.9651 39.8074,8.1891 39.8074,8.4651 L39.8074,10.4651 C39.8074,10.5981 39.7544,10.7251 39.6614,10.8191 L38.3074,12.1721 L38.3074,14.9651 L39.8074,14.9651 L39.8074,12.4651 C39.8074,12.1891 40.0314,11.9651 40.3074,11.9651 L43.1004,11.9651 L47.8704,7.1951 C45.5894,6.7181 43.2274,6.4651 40.8074,6.4651 Z M80.9174,8.4651 C80.6264,9.7371 80.2054,10.9521 79.7274,12.1331 C77.8434,16.6421 75.1694,20.6821 72.2294,24.4731 C74.8284,29.4041 76.3074,35.0141 76.3074,40.9651 C76.3074,51.5431 71.6524,61.0481 64.2884,67.5581 C64.2454,67.7831 64.0584,67.9551 63.8224,67.9621 C57.6194,73.2571 49.5824,76.4651 40.8074,76.4651 C34.8414,76.4651 29.2174,74.9791 24.2764,72.3671 C22.1394,73.8581 19.9574,75.2881 17.6944,76.5901 C15.2424,77.9901 12.7074,79.2781 9.9984,80.1831 C8.6404,80.6161 7.2364,80.9761 5.7614,81.0131 C5.0274,81.0281 4.2704,80.9631 3.5364,80.7151 C2.8124,80.4771 2.0974,79.9861 1.6264,79.4031 C0.6024,78.2541 0.1024,76.7151 0.0164,75.2291 C-0.0646,73.7341 0.1604,72.2621 0.5334,70.8581 C1.2904,68.0421 2.5644,65.4471 3.9474,62.9471 C5.3564,60.4741 6.9114,58.0941 8.5654,55.7951 C6.4794,51.2791 5.3074,46.2571 5.3074,40.9651 C5.3074,21.3901 21.2324,5.4651 40.8074,5.4651 C46.2374,5.4651 51.3824,6.6941 55.9884,8.8821 C57.4734,7.7431 58.9844,6.6371 60.5554,5.6071 C62.6614,4.2331 64.8344,2.9291 67.1684,1.9051 C69.4974,0.9021 71.9704,0.0161 74.6674,0.0001 C75.9994,-0.0029 77.4204,0.2451 78.6534,0.9841 C79.2654,1.3631 79.8184,1.7771 80.2864,2.4161 C80.7344,3.0401 80.9904,3.7551 81.1164,4.4501 C81.3564,5.8511 81.1954,7.1951 80.9174,8.4651 Z M43.3134,19.4711 C44.1284,20.2861 43.6554,22.1831 42.8074,22.9651 L38.8074,26.6791 L38.8074,39.9651 L36.8074,41.9651 L34.0824,31.0671 L28.8074,35.9651 L26.8074,35.9651 L21.8074,34.9651 L22.8074,33.9651 L27.8074,32.9651 L31.7454,28.6991 L20.8074,25.9651 L22.8074,23.9651 L36.1154,23.9651 L39.8074,19.9651 C40.5884,19.1131 42.4894,18.6471 43.3064,19.4641 L43.3134,19.4711 Z" id="Fill-1" fill="#201E1E" mask="url(#mask-2)"></path>
                    </g>
                </g>
            </g>
        </g>
    </g>
</svg>