<?xml version="1.0" encoding="UTF-8"?>
<svg width="83px" height="83px" viewBox="0 0 83 83" version="1.1" xmlns="http://www.w3.org/2000/svg" xmlns:xlink="http://www.w3.org/1999/xlink">
    <!-- Generator: Sketch 48.2 (47327) - http://www.bohemiancoding.com/sketch -->
    <title>confidence/official copy</title>
    <desc>Created with Sketch.</desc>
    <defs>
        <polygon id="path-1" points="0 0.0001 82.6246 0.0001 82.6246 82.5981 0 82.5981"></polygon>
    </defs>
    <g id="Produto" stroke="none" stroke-width="1" fill="none" fill-rule="evenodd">
        <g id="Group-2" transform="translate(-262.000000, -65.000000)">
            <g id="confidence_bar" transform="translate(100.000000, 60.000000)">
                <g id="confidence/official-copy" transform="translate(162.000000, 5.000000)">
                    <g id="Page-1">
                        <mask id="mask-2" fill="white">
                            <use xlink:href="#path-1"></use>
                        </mask>
                        <g id="Clip-2"></g>
                        <path d="M22.3066,64.5376 C22.4786,64.3216 22.7926,64.2846 23.0086,64.4546 C23.3756,64.7436 23.7496,65.0246 24.1306,65.2986 C24.3546,65.4586 24.4066,65.7706 24.2456,65.9956 C24.1486,66.1326 23.9946,66.2046 23.8386,66.2046 C23.7386,66.2046 23.6366,66.1746 23.5486,66.1106 C23.1546,65.8296 22.7686,65.5386 22.3896,65.2396 C22.1726,65.0686 22.1356,64.7546 22.3066,64.5376 Z M51.5846,12.5776 C51.8446,12.6706 51.9796,12.9566 51.8866,13.2166 C51.8126,13.4206 51.6206,13.5476 51.4156,13.5476 C51.3596,13.5476 51.3026,13.5386 51.2466,13.5186 C50.8346,13.3706 50.4186,13.2316 49.9976,13.1016 C49.7336,13.0206 49.5856,12.7406 49.6666,12.4766 C49.7476,12.2126 50.0266,12.0626 50.2926,12.1456 C50.7266,12.2806 51.1576,12.4246 51.5846,12.5776 Z M24.4886,16.4236 C24.3376,16.1916 24.4036,15.8816 24.6346,15.7306 C29.5866,12.4996 35.3426,10.7926 41.2806,10.7926 C41.5566,10.7926 41.7806,11.0166 41.7806,11.2926 C41.7806,11.5686 41.5566,11.7926 41.2806,11.7926 C35.5366,11.7926 29.9696,13.4436 25.1816,16.5686 C25.0966,16.6236 25.0016,16.6496 24.9086,16.6496 C24.7446,16.6496 24.5846,16.5706 24.4886,16.4236 Z M10.7806,41.2926 C10.7806,33.9446 13.4306,26.8456 18.2426,21.3036 C18.4226,21.0936 18.7396,21.0726 18.9476,21.2536 C19.1566,21.4346 19.1786,21.7506 18.9976,21.9586 C14.3436,27.3196 11.7806,34.1846 11.7806,41.2926 C11.7806,49.6416 15.3416,57.6366 21.5516,63.2256 C21.7566,63.4106 21.7736,63.7256 21.5886,63.9326 C21.4906,64.0416 21.3536,64.0976 21.2176,64.0976 C21.0986,64.0976 20.9786,64.0556 20.8826,63.9696 C14.4626,58.1896 10.7806,49.9256 10.7806,41.2926 Z M20.4006,19.0596 C20.8396,18.6476 21.2906,18.2466 21.7546,17.8606 C21.9666,17.6836 22.2826,17.7126 22.4586,17.9256 C22.6356,18.1376 22.6066,18.4526 22.3946,18.6296 C21.9466,19.0026 21.5096,19.3896 21.0846,19.7886 C20.9886,19.8796 20.8656,19.9246 20.7426,19.9246 C20.6096,19.9246 20.4766,19.8716 20.3776,19.7666 C20.1886,19.5656 20.1996,19.2486 20.4006,19.0596 Z M43.9166,11.4026 C43.9456,11.1276 44.1826,10.9206 44.4666,10.9566 C45.9126,11.1076 47.3576,11.3626 48.7606,11.7166 C49.0286,11.7846 49.1906,12.0566 49.1236,12.3236 C49.0666,12.5506 48.8626,12.7016 48.6396,12.7016 C48.5986,12.7016 48.5576,12.6966 48.5166,12.6866 C47.1596,12.3446 45.7616,12.0976 44.3626,11.9516 C44.0886,11.9226 43.8886,11.6776 43.9166,11.4026 Z M71.7806,41.2926 C71.7806,42.1646 71.7426,43.0476 71.6686,43.9166 C71.6466,44.1776 71.4286,44.3746 71.1716,44.3746 C71.1576,44.3746 71.1426,44.3736 71.1286,44.3726 C70.8536,44.3496 70.6496,44.1066 70.6726,43.8326 C70.7446,42.9906 70.7806,42.1366 70.7806,41.2926 C70.7806,41.0166 71.0036,40.7926 71.2806,40.7926 C71.5566,40.7926 71.7806,41.0166 71.7806,41.2926 Z M56.7336,67.0166 C56.8726,67.2556 56.7906,67.5606 56.5516,67.6996 C55.9586,68.0436 55.3426,68.3736 54.7196,68.6796 C54.6486,68.7146 54.5736,68.7306 54.4996,68.7306 C54.3146,68.7306 54.1376,68.6286 54.0506,68.4516 C53.9286,68.2046 54.0306,67.9046 54.2786,67.7826 C54.8806,67.4856 55.4766,67.1666 56.0506,66.8346 C56.2896,66.6956 56.5966,66.7776 56.7336,67.0166 Z M53.2966,13.7916 C53.4106,13.5406 53.7076,13.4306 53.9586,13.5446 C64.4316,18.3376 71.2486,28.4506 71.7506,39.9376 C71.7626,40.2136 71.5486,40.4476 71.2726,40.4596 C71.2646,40.4596 71.2576,40.4596 71.2506,40.4596 C70.9846,40.4596 70.7636,40.2496 70.7516,39.9816 C70.2656,28.8706 63.6726,19.0896 53.5426,14.4546 C53.2916,14.3396 53.1816,14.0426 53.2966,13.7916 Z M52.2576,69.2246 C52.3536,69.4826 52.2236,69.7706 51.9646,69.8686 C48.5516,71.1446 44.9566,71.7926 41.2806,71.7926 C36.2636,71.7926 31.2886,70.5476 26.8936,68.1926 C26.6506,68.0626 26.5586,67.7596 26.6896,67.5166 C26.8196,67.2726 27.1236,67.1786 27.3666,67.3116 C31.6166,69.5886 36.4276,70.7926 41.2806,70.7926 C44.8366,70.7926 48.3136,70.1666 51.6136,68.9316 C51.8716,68.8356 52.1606,68.9666 52.2576,69.2246 Z M71.2836,46.8036 C69.8246,54.7976 65.1056,62.0066 58.3376,66.5806 C58.2516,66.6396 58.1546,66.6666 58.0576,66.6666 C57.8976,66.6666 57.7396,66.5896 57.6436,66.4466 C57.4886,66.2176 57.5486,65.9066 57.7776,65.7526 C64.3246,61.3276 68.8896,54.3546 70.3006,46.6236 C70.3496,46.3516 70.6106,46.1796 70.8816,46.2216 C71.1536,46.2706 71.3336,46.5316 71.2836,46.8036 Z M18.5626,11.3556 L17.8306,10.3196 L18.0146,9.2526 L18.9056,8.6256 L19.9716,8.8096 L20.7026,9.8466 L20.5136,10.9056 L19.6236,11.5326 L18.5626,11.3556 Z M5.3706,23.6206 L5.9296,22.5406 L6.5356,22.3486 L9.0216,23.6346 L9.2236,24.2656 L8.6726,25.3286 L5.3706,23.6206 Z M10.5686,24.4646 L10.0016,22.6816 L6.7156,20.9816 L4.9926,21.5296 L3.6236,24.1766 L9.2206,27.0706 L10.5686,24.4646 Z M6.5696,36.3776 L0.3856,35.1606 L1.1526,31.2646 L2.4246,31.5146 L1.9086,34.1386 L3.1626,34.3856 L3.5206,32.5656 L4.5016,32.7586 L4.1436,34.5786 L5.5566,34.8566 L6.0756,32.2246 L7.3386,32.4736 L6.5696,36.3776 Z M6.3546,43.6886 L0.0636,43.9986 L-0.0004,42.7046 L6.2906,42.3946 L6.3546,43.6886 Z M8.2796,53.1186 L2.2446,54.9336 L1.1026,51.1416 L2.3446,50.7666 L3.1146,53.3276 L4.4256,52.9336 L3.8576,51.0456 L4.8136,50.7576 L5.3826,52.6456 L7.9086,51.8866 L8.2796,53.1186 Z M11.4906,59.6856 L6.0746,62.9006 L5.4126,61.7866 L10.8286,58.5716 L11.4906,59.6856 Z M16.7986,66.3136 L13.1776,69.8836 L14.2696,70.9916 L13.4046,71.8446 L10.3156,68.7106 L11.1816,67.8576 L12.2676,68.9606 L15.8886,65.3916 L16.7986,66.3136 Z M22.1506,76.4396 L21.0016,75.7846 L20.9006,75.4166 L21.3156,74.6896 L21.6836,74.5896 L22.8316,75.2446 L22.1506,76.4396 Z M23.3796,74.2836 L22.7856,73.9446 L23.2446,71.3076 L22.1036,70.6566 L21.6556,73.4036 L20.3636,73.7646 L19.4936,75.2876 L19.8526,76.6206 L22.6336,78.2066 L25.7526,72.7376 L24.6276,72.0966 L23.3796,74.2836 Z M31.0686,74.8426 L34.9396,75.7726 L33.4656,81.9036 L29.6036,80.9746 L29.9066,79.7146 L32.5076,80.3396 L32.8066,79.0956 L31.0026,78.6616 L31.2366,77.6896 L33.0406,78.1236 L33.3776,76.7226 L30.7676,76.0946 L31.0686,74.8426 Z M45.0316,77.3316 L45.2076,81.3306 L44.1336,82.5036 L41.9946,82.5986 L40.9806,81.6616 L40.9196,80.2676 L42.2046,80.2116 L42.2406,81.0206 L42.5216,81.2776 L43.5826,81.2316 L43.8916,80.8846 L43.7576,77.8556 L43.4006,77.5196 L42.3756,77.5656 L42.1006,77.8656 L42.1416,78.7916 L40.8566,78.8486 L40.7916,77.3656 L41.7626,76.3056 L43.8116,76.2146 C44.2146,76.5846 44.6276,76.9526 45.0316,77.3316 Z M61.1596,73.1886 L61.7946,74.2886 L61.5146,75.3336 L60.5706,75.8786 L59.5256,75.5986 L58.8906,74.4986 L59.1756,73.4616 L60.1196,72.9166 L61.1596,73.1886 Z M76.2506,61.1896 L76.5886,62.7446 L75.4306,64.5466 L74.0796,64.8326 L72.9066,64.0786 L73.6026,62.9956 L74.2836,63.4336 L74.6566,63.3526 L75.2306,62.4606 L75.1256,62.0076 L72.5756,60.3666 L72.0956,60.4656 L71.5406,61.3276 L71.6266,61.7256 L72.4066,62.2266 L71.7106,63.3086 L70.4616,62.5066 L70.1566,61.1006 L71.2656,59.3756 C71.8016,59.2596 72.3406,59.1356 72.8826,59.0236 L76.2506,61.1896 Z M74.7066,51.7206 L80.6876,53.7066 L80.2796,54.9366 L74.2976,52.9506 L74.7066,51.7206 Z M82.6246,42.3386 L82.2816,46.7256 L81.0706,46.6316 L81.1906,45.0886 L76.1216,44.6916 L76.2226,43.3996 L81.2916,43.7966 L81.4136,42.2446 L82.6246,42.3386 Z M75.1056,31.9996 L81.2796,30.7176 L81.5776,32.1556 L78.1836,34.7276 L81.9496,33.9456 L82.1746,35.0306 L76.0016,36.3126 L75.7446,35.0776 L79.3616,32.2476 L75.3306,33.0846 L75.1056,31.9996 Z M71.2556,23.1136 L76.8096,20.1436 L78.6806,23.6426 L77.5376,24.2536 L76.2786,21.8976 L75.1516,22.4996 L76.0256,24.1346 L75.1446,24.6046 L74.2706,22.9706 L73.0006,23.6496 L74.2646,26.0136 L73.1306,26.6206 L71.2556,23.1136 Z M65.7256,16.2326 L64.8276,15.3116 L69.3346,10.9116 L70.2336,11.8316 L68.4106,13.6116 L69.5616,14.7896 L71.3836,13.0106 L72.2886,13.9376 L67.7816,18.3386 L66.8766,17.4116 L68.8276,15.5066 L67.6766,14.3276 L65.7256,16.2326 Z M57.9826,10.5186 L60.4916,6.0966 L59.1366,5.3276 L59.7366,4.2706 L63.5636,6.4426 L62.9646,7.4986 L61.6186,6.7356 L59.1096,11.1586 L57.9826,10.5186 Z M48.3556,6.9886 L47.6356,5.8166 L48.8726,0.6316 L50.1256,0.9316 L49.0356,5.4946 L49.2766,5.8846 L50.2576,6.1186 L50.6476,5.8786 L51.7366,1.3156 L52.9536,1.6056 L51.7166,6.7906 L50.5446,7.5116 L48.3556,6.9886 Z M39.3846,1.6946 L40.0766,4.1136 L38.9356,4.1636 L39.3846,1.6946 Z M38.8066,4.9176 L40.2716,4.8526 L40.6766,6.2846 L41.9976,6.2256 L40.2466,-0.0004 L38.6736,0.0696 L37.3966,6.4296 L38.5466,6.3786 L38.8066,4.9176 Z M41.8716,41.4476 C41.6786,41.3776 41.5776,41.1616 41.6476,40.9686 C41.7186,40.7746 41.9336,40.6746 42.1276,40.7446 C42.3216,40.8146 42.4216,41.0306 42.3506,41.2246 C42.2806,41.4176 42.0656,41.5176 41.8716,41.4476 Z M41.5896,43.3156 C41.5196,43.5096 41.3046,43.6096 41.1106,43.5386 C40.9166,43.4686 40.8166,43.2536 40.8866,43.0586 C40.9566,42.8656 41.1726,42.7656 41.3666,42.8356 C41.5596,42.9066 41.6606,43.1216 41.5896,43.3156 Z M40.6146,41.7766 C40.6856,41.5826 40.9006,41.4816 41.0946,41.5526 C41.2876,41.6226 41.3886,41.8386 41.3176,42.0326 C41.2476,42.2256 41.0326,42.3266 40.8386,42.2556 C40.6446,42.1856 40.5446,41.9696 40.6146,41.7766 Z M40.3426,40.4936 C40.4136,40.2996 40.6286,40.1996 40.8226,40.2696 C41.0156,40.3396 41.1166,40.5556 41.0456,40.7486 C40.9756,40.9426 40.7606,41.0426 40.5666,40.9726 C40.3726,40.9026 40.2726,40.6866 40.3426,40.4936 Z M40.2846,42.8406 C40.2146,43.0336 39.9986,43.1346 39.8056,43.0636 C39.6116,42.9936 39.5116,42.7776 39.5816,42.5846 C39.6526,42.3916 39.8676,42.2906 40.0616,42.3606 C40.2546,42.4316 40.3556,42.6466 40.2846,42.8406 Z M40.4346,39.8616 L39.4496,42.5676 C39.2796,43.0346 39.6466,43.5996 40.2676,43.8256 C40.8876,44.0516 41.5326,43.8536 41.7026,43.3876 L42.6876,40.6816 L40.4346,39.8616 Z M44.4356,46.2786 C44.2606,46.7606 44.0976,47.2426 43.9466,47.7246 C42.8646,47.9656 41.7626,48.5396 40.7156,49.3876 C39.9936,49.8636 39.0626,50.0056 38.1896,49.6876 C38.1736,49.6826 38.1566,49.6756 38.1396,49.6696 L38.0906,49.6516 C37.2176,49.3336 36.5956,48.6266 36.3486,47.7976 C36.0916,46.4756 35.6166,45.3276 34.9426,44.4476 C35.1366,43.9806 35.3216,43.5066 35.4966,43.0246 C36.7046,39.7066 37.3386,36.3726 37.4506,33.2256 L37.8996,32.9796 C38.0936,33.0646 38.2946,33.1446 38.5026,33.2206 C39.8166,33.6986 41.0686,33.8586 41.8696,33.7066 C42.0846,33.6956 42.3056,33.7266 42.5196,33.8046 C43.0196,33.9866 43.3796,34.3856 43.5326,34.8556 C43.9506,34.5936 44.4826,34.5186 44.9836,34.7016 C45.1976,34.7796 45.3866,34.8976 45.5446,35.0436 C46.0596,35.6756 47.1216,36.3576 48.4346,36.8356 C48.6426,36.9116 48.8486,36.9786 49.0526,37.0386 L49.2396,37.5156 C47.3016,39.9986 45.6436,42.9606 44.4356,46.2786 Z M48.7676,35.9296 C47.9476,35.6256 47.0776,35.2106 46.4416,34.5966 C46.3426,34.4956 46.2576,34.3876 46.1536,34.2926 C45.5596,33.7826 44.7406,33.5176 43.9616,33.6756 C43.4656,33.0536 42.6686,32.7296 41.8856,32.7396 C41.7646,32.7446 41.6506,32.7666 41.5306,32.7806 C40.6176,32.8666 39.6116,32.6016 38.7636,32.2876 C38.4536,32.1716 38.1556,32.0376 37.8516,31.9056 L36.5076,32.6406 L36.4596,33.7636 C36.3556,35.4576 36.1156,37.1146 35.7466,38.7716 L34.1906,43.7346 L33.8396,44.5876 L34.2286,45.1036 C34.7596,45.8376 35.0856,46.6646 35.3046,47.5386 L35.4916,48.2786 C35.8966,49.3556 36.7146,50.1966 37.8096,50.5766 C38.4686,50.8276 39.1566,50.8786 39.8486,50.7596 C40.4126,50.6446 40.9596,50.4276 41.4116,50.0646 C42.1886,49.4596 43.0306,48.9656 43.9866,48.7076 L44.7016,48.5406 C44.8306,48.1296 44.9586,47.7196 45.0966,47.3106 C45.5166,46.0756 46.0096,44.8726 46.5666,43.6916 C47.4416,41.8816 48.4546,40.1816 49.6516,38.5646 L50.3366,37.6736 L49.7796,36.2466 C49.4386,36.1456 49.1006,36.0506 48.7676,35.9296 Z M37.9026,40.7896 C37.9736,40.5956 38.1886,40.4956 38.3826,40.5656 C38.5756,40.6366 38.6766,40.8516 38.6056,41.0456 C38.5356,41.2386 38.3196,41.3396 38.1266,41.2686 C37.9326,41.1986 37.8316,40.9826 37.9026,40.7896 Z M37.6306,39.5066 C37.7016,39.3126 37.9166,39.2126 38.1106,39.2826 C38.3036,39.3526 38.4046,39.5686 38.3336,39.7626 C38.2636,39.9556 38.0476,40.0566 37.8546,39.9856 C37.6606,39.9146 37.5606,39.6996 37.6306,39.5066 Z M37.5726,41.8536 C37.5016,42.0476 37.2866,42.1476 37.0936,42.0776 C36.8996,42.0066 36.7986,41.7916 36.8696,41.5976 C36.9396,41.4046 37.1556,41.3036 37.3486,41.3736 C37.5426,41.4446 37.6426,41.6606 37.5726,41.8536 Z M38.8776,42.3286 C38.8066,42.5216 38.5916,42.6226 38.3976,42.5526 C38.2046,42.4816 38.1036,42.2666 38.1746,42.0726 C38.2446,41.8796 38.4606,41.7786 38.6536,41.8496 C38.8476,41.9196 38.9486,42.1356 38.8776,42.3286 Z M38.9356,39.9816 C39.0066,39.7876 39.2216,39.6866 39.4146,39.7576 C39.6086,39.8286 39.7096,40.0436 39.6396,40.2376 C39.5686,40.4306 39.3526,40.5316 39.1596,40.4606 C38.9656,40.3906 38.8656,40.1746 38.9356,39.9816 Z M38.9896,42.4006 L39.9746,39.6946 L37.7226,38.8746 L36.7376,41.5806 C36.5676,42.0476 36.9346,42.6126 37.5556,42.8386 C38.1756,43.0636 38.8196,42.8676 38.9896,42.4006 Z M39.2396,44.6196 C39.4326,44.6896 39.5336,44.9056 39.4626,45.0996 C39.3926,45.2926 39.1766,45.3926 38.9836,45.3226 C38.7896,45.2526 38.6886,45.0366 38.7596,44.8436 C38.8296,44.6496 39.0456,44.5496 39.2396,44.6196 Z M39.7346,46.3826 C39.6636,46.5756 39.4486,46.6766 39.2556,46.6056 C39.0616,46.5356 38.9606,46.3196 39.0316,46.1266 C39.1016,45.9336 39.3176,45.8326 39.5116,45.9026 C39.7046,45.9736 39.8056,46.1886 39.7346,46.3826 Z M40.0066,47.6656 C39.9356,47.8586 39.7206,47.9596 39.5266,47.8896 C39.3336,47.8186 39.2326,47.6026 39.3036,47.4096 C39.3736,47.2166 39.5896,47.1156 39.7826,47.1856 C39.9766,47.2566 40.0776,47.4726 40.0066,47.6656 Z M40.0646,45.3186 C40.1356,45.1246 40.3506,45.0236 40.5436,45.0956 C40.7376,45.1656 40.8376,45.3806 40.7676,45.5746 C40.6976,45.7676 40.4816,45.8686 40.2876,45.7976 C40.0946,45.7266 39.9936,45.5126 40.0646,45.3186 Z M38.7016,47.1906 C38.6306,47.3846 38.4156,47.4846 38.2226,47.4146 C38.0286,47.3446 37.9276,47.1286 37.9976,46.9346 C38.0686,46.7416 38.2846,46.6416 38.4776,46.7116 C38.6716,46.7816 38.7716,46.9976 38.7016,47.1906 Z M37.8666,46.9176 C37.6966,47.3856 38.0636,47.9496 38.6836,48.1756 C39.3046,48.4016 39.9486,48.2046 40.1186,47.7376 L41.1036,45.0316 L38.8506,44.2116 L37.8666,46.9176 Z M43.5346,41.2576 C43.7286,41.3276 43.8286,41.5426 43.7586,41.7366 C43.6876,41.9306 43.4726,42.0306 43.2786,41.9596 C43.0846,41.8896 42.9846,41.6746 43.0556,41.4806 C43.1256,41.2876 43.3406,41.1866 43.5346,41.2576 Z M44.0306,43.0186 C43.9596,43.2136 43.7436,43.3136 43.5506,43.2436 C43.3566,43.1726 43.2566,42.9576 43.3276,42.7646 C43.3976,42.5696 43.6136,42.4696 43.8066,42.5406 C44.0006,42.6106 44.1006,42.8256 44.0306,43.0186 Z M44.3016,44.3036 C44.2316,44.4966 44.0166,44.5976 43.8226,44.5266 C43.6286,44.4566 43.5286,44.2406 43.5986,44.0476 C43.6696,43.8536 43.8846,43.7536 44.0776,43.8236 C44.2726,43.8936 44.3726,44.1086 44.3016,44.3036 Z M44.3606,41.9556 C44.4306,41.7626 44.6456,41.6616 44.8396,41.7316 C45.0336,41.8026 45.1336,42.0176 45.0636,42.2116 C44.9926,42.4046 44.7776,42.5056 44.5836,42.4346 C44.3896,42.3646 44.2896,42.1496 44.3606,41.9556 Z M42.9966,43.8276 C42.9266,44.0216 42.7116,44.1216 42.5176,44.0516 C42.3236,43.9806 42.2236,43.7666 42.2936,43.5716 C42.3646,43.3786 42.5796,43.2776 42.7736,43.3486 C42.9676,43.4196 43.0676,43.6346 42.9966,43.8276 Z M42.1616,43.5556 C41.9916,44.0216 42.3596,44.5876 42.9796,44.8126 C43.5996,45.0386 44.2446,44.8416 44.4146,44.3756 L45.3996,41.6686 L43.1466,40.8486 L42.1616,43.5556 Z M41.1646,38.2346 C41.2356,38.0416 41.4506,37.9406 41.6446,38.0116 C41.8376,38.0816 41.9386,38.2976 41.8686,38.4906 C41.7976,38.6846 41.5816,38.7846 41.3886,38.7146 C41.1946,38.6436 41.0946,38.4286 41.1646,38.2346 Z M41.9266,36.1436 C41.9966,35.9496 42.2116,35.8496 42.4056,35.9196 C42.5986,35.9906 42.6996,36.2056 42.6296,36.3996 C42.5586,36.5926 42.3436,36.6936 42.1496,36.6226 C41.9556,36.5526 41.8556,36.3366 41.9266,36.1436 Z M42.9016,37.6826 C42.8306,37.8756 42.6156,37.9766 42.4216,37.9066 C42.2276,37.8356 42.1276,37.6206 42.1986,37.4266 C42.2686,37.2326 42.4836,37.1326 42.6776,37.2036 C42.8706,37.2736 42.9716,37.4886 42.9016,37.6826 Z M43.1726,38.9656 C43.1026,39.1596 42.8876,39.2596 42.6936,39.1896 C42.4996,39.1186 42.3996,38.9036 42.4696,38.7096 C42.5406,38.5166 42.7556,38.4156 42.9496,38.4866 C43.1426,38.5566 43.2436,38.7716 43.1726,38.9656 Z M43.2306,36.6186 C43.3016,36.4246 43.5166,36.3246 43.7106,36.3946 C43.9046,36.4656 44.0046,36.6806 43.9336,36.8746 C43.8636,37.0676 43.6486,37.1686 43.4546,37.0976 C43.2616,37.0276 43.1606,36.8116 43.2306,36.6186 Z M41.8506,39.4756 C42.4706,39.7016 43.1156,39.5046 43.2856,39.0376 L44.2706,36.3316 L42.0176,35.5116 L41.0326,38.2176 C40.8626,38.6846 41.2296,39.2496 41.8506,39.4756 Z M42.7926,31.9256 L43.1166,31.9936 L43.0226,32.4386 L42.6986,32.3706 L42.7926,31.9256 Z M47.5716,33.8656 L47.8596,34.0286 L47.6346,34.4246 L47.3466,34.2606 L47.5716,33.8656 Z M53.4796,48.6876 L52.3176,45.2746 L49.6456,44.3026 C49.9066,43.7796 50.1786,43.2706 50.4626,42.7786 L53.3966,43.8466 L54.5406,40.7036 L52.3676,39.9126 C52.7436,39.4216 53.1326,38.9566 53.5306,38.5146 L54.6326,38.9156 L57.7166,37.0476 L53.4796,48.6876 Z M51.6896,40.8456 L52.9916,41.3196 L52.6056,42.3786 L51.0456,41.8106 C51.2546,41.4806 51.4706,41.1596 51.6896,40.8456 Z M47.2186,47.0246 C46.8386,48.0676 46.5236,49.1106 46.2706,50.1436 C45.0816,50.2576 43.9436,50.6686 42.9636,51.3266 L42.9606,51.3256 C41.7176,52.1836 40.3896,52.7756 39.0426,53.0536 C38.9286,53.0616 38.8036,53.0466 38.6796,53.0016 C38.4636,52.9236 38.3016,52.7736 38.2316,52.6106 C38.1656,52.3396 37.9946,52.1366 37.7746,52.1046 C37.7376,52.0996 37.6996,52.0996 37.6626,52.1046 C37.6506,52.1056 37.6396,52.1096 37.6286,52.1126 C37.6036,52.1176 37.5786,52.1236 37.5546,52.1336 C37.5406,52.1396 37.5276,52.1456 37.5146,52.1526 C37.4936,52.1636 37.4726,52.1746 37.4516,52.1876 C37.4376,52.1976 37.4256,52.2076 37.4126,52.2186 C37.3936,52.2326 37.3746,52.2496 37.3566,52.2666 C37.3446,52.2796 37.3326,52.2926 37.3206,52.3066 C37.3046,52.3256 37.2886,52.3456 37.2736,52.3666 C37.2626,52.3826 37.2516,52.3976 37.2416,52.4136 C37.2266,52.4366 37.2136,52.4616 37.2016,52.4866 C37.1926,52.5046 37.1836,52.5206 37.1766,52.5396 C37.1636,52.5676 37.1536,52.5976 37.1436,52.6276 C37.1386,52.6446 37.1316,52.6616 37.1266,52.6796 C37.1136,52.7266 37.1026,52.7766 37.0966,52.8286 L37.0946,52.8376 C37.0836,52.9296 37.0836,53.0186 37.0936,53.1046 C37.1206,53.2736 37.2016,53.4356 37.3176,53.5776 L36.2566,56.4936 L35.1966,56.1076 L36.2576,53.1916 C36.4386,53.1586 36.6036,53.0856 36.7336,52.9746 C36.7966,52.9156 36.8546,52.8466 36.9046,52.7676 C36.9066,52.7656 36.9076,52.7636 36.9096,52.7606 C36.9366,52.7166 36.9606,52.6726 36.9806,52.6276 C36.9896,52.6086 36.9956,52.5916 37.0026,52.5726 C37.0146,52.5446 37.0256,52.5166 37.0336,52.4876 C37.0396,52.4686 37.0436,52.4496 37.0486,52.4306 C37.0546,52.4036 37.0606,52.3766 37.0646,52.3496 C37.0676,52.3306 37.0686,52.3116 37.0706,52.2936 C37.0726,52.2666 37.0736,52.2416 37.0736,52.2166 C37.0726,52.1976 37.0716,52.1806 37.0706,52.1626 C37.0686,52.1376 37.0636,52.1126 37.0596,52.0896 C37.0566,52.0736 37.0536,52.0576 37.0486,52.0416 C37.0416,52.0176 37.0326,51.9956 37.0226,51.9736 C37.0166,51.9606 37.0126,51.9466 37.0056,51.9336 C36.9926,51.9106 36.9776,51.8906 36.9616,51.8696 C36.9536,51.8606 36.9486,51.8496 36.9406,51.8426 C36.9156,51.8146 36.8866,51.7906 36.8546,51.7696 C36.6646,51.6516 36.4036,51.6986 36.1796,51.8646 C36.0216,51.9436 35.8016,51.9536 35.5856,51.8756 C35.4616,51.8296 35.3546,51.7626 35.2736,51.6816 C34.4196,50.6026 33.7826,49.2966 33.3826,47.8396 L33.3796,47.8396 C33.0526,46.7046 32.4446,45.6576 31.6066,44.8076 C32.0776,43.8526 32.5056,42.8506 32.8856,41.8086 C34.5116,37.3416 34.9566,32.8806 34.3736,29.1786 L36.8306,27.9256 L37.2036,28.3446 C37.9056,29.2926 40.1796,29.6546 42.6786,29.1406 C42.9496,29.0846 43.2136,29.0196 43.4696,28.9486 C43.5516,29.4136 43.9226,29.8266 44.3766,29.9196 C44.8046,30.0076 45.1786,29.7856 45.3156,29.4046 C45.3176,29.3996 45.3196,29.3946 45.3206,29.3906 C45.3496,29.3056 45.3676,29.2116 45.3706,29.1116 C45.3776,28.9096 45.3266,28.7096 45.2336,28.5316 L46.1426,26.0326 L47.2026,26.4186 L46.2926,28.9176 C46.1076,28.9946 45.9396,29.1146 45.8156,29.2736 C45.7536,29.3516 45.7066,29.4346 45.6746,29.5186 C45.6726,29.5236 45.6706,29.5286 45.6696,29.5336 C45.5296,29.9126 45.6736,30.3236 46.0576,30.5316 C46.4656,30.7516 47.0146,30.6746 47.3766,30.3706 C47.5276,30.5906 47.6876,30.8086 47.8596,31.0256 C49.4436,33.0266 51.4176,34.2106 52.5646,33.9346 L53.1196,33.8546 L54.1956,36.3926 C51.3696,38.8546 48.8446,42.5586 47.2186,47.0246 Z M38.6606,58.1346 L40.5276,61.2186 L28.8876,56.9816 L32.3016,55.8196 L33.7836,51.7456 C33.9326,51.9666 34.0866,52.1826 34.2516,52.3866 L34.2536,52.3796 C34.4516,52.6346 34.7636,52.8626 35.1406,53.0196 L33.7296,56.8976 L36.8726,58.0416 L38.2846,54.1636 C38.6746,54.2856 39.0596,54.3116 39.3746,54.2436 L39.3726,54.2506 C39.6306,54.1996 39.8866,54.1336 40.1426,54.0596 L38.6606,58.1346 Z M33.4326,34.2006 C33.3986,34.5816 33.3576,34.9666 33.3056,35.3536 L31.9066,34.8446 L32.2916,33.7856 L33.4326,34.2006 Z M30.2646,37.2486 L27.1816,39.1166 L31.4176,27.4756 L32.5796,30.8896 L33.5206,31.2316 C33.5406,31.8256 33.5396,32.4326 33.5126,33.0496 L31.5016,32.3176 L30.3576,35.4606 L33.1296,36.4706 C33.0306,37.0296 32.9126,37.5946 32.7766,38.1626 L30.2646,37.2486 Z M43.7396,24.3916 L41.8716,21.3076 L53.5126,25.5446 L50.0986,26.7066 L48.7726,30.3486 C48.6956,30.2566 48.6176,30.1646 48.5416,30.0686 C48.4806,29.9916 48.4216,29.9146 48.3636,29.8376 C48.1236,29.5486 47.8046,29.2766 47.4296,29.0366 L48.6696,25.6276 L45.5276,24.4846 L44.2866,27.8916 C43.8446,27.8356 43.4256,27.8386 43.0566,27.9056 C42.9626,27.9276 42.8676,27.9486 42.7716,27.9686 C42.6516,27.9926 42.5326,28.0136 42.4136,28.0346 L43.7396,24.3916 Z M59.7266,34.4956 L54.5346,37.6406 L54.4066,37.5936 C54.7716,37.2336 55.1426,36.8926 55.5186,36.5756 L53.9196,32.8056 L53.3476,32.9486 C52.4676,33.2406 51.0316,32.5766 49.6686,31.2956 L51.0126,27.6006 L56.7596,25.6446 L56.7596,25.6426 L39.3206,19.2956 L39.3196,19.2976 L42.4646,24.4896 L41.1196,28.1836 C39.2516,28.2886 37.7236,27.8746 37.2386,27.0856 L36.8916,26.6076 L33.2436,28.4686 C33.3216,28.9156 33.3826,29.3746 33.4296,29.8446 L31.5176,24.2286 L31.5156,24.2276 L25.1686,41.6676 L25.1706,41.6676 L30.3626,38.5236 L32.4786,39.2936 C32.2816,39.9906 32.0586,40.6906 31.8046,41.3916 C31.3586,42.6156 30.8456,43.7816 30.2766,44.8816 C31.3266,45.8806 32.0426,47.1766 32.3376,48.5766 C32.5206,49.2226 32.7526,49.8366 33.0276,50.4156 L31.3866,54.9256 L25.6396,56.8816 L25.6396,56.8836 L43.0786,63.2306 L43.0796,63.2286 L39.9356,58.0366 L41.5766,53.5266 C42.1596,53.2606 42.7316,52.9386 43.2866,52.5616 C44.4126,51.6786 45.7956,51.1466 47.2416,51.0566 C47.5126,49.8486 47.8696,48.6246 48.3156,47.4006 C48.5706,46.7006 48.8496,46.0206 49.1466,45.3596 L51.4236,46.1886 L53.3796,51.9346 L53.3816,51.9356 L59.7286,34.4966 L59.7266,34.4956 Z M41.7116,32.1616 L41.3806,32.0916 L41.8486,29.8746 L42.9726,30.1126 L42.8906,30.5016 L42.0976,30.3346 L41.9896,30.8446 L42.6836,30.9906 L42.6006,31.3806 L41.9076,31.2336 L41.7116,32.1616 Z M45.3516,32.7676 L45.6806,32.8876 L45.5246,33.3136 L45.1966,33.1946 L45.3516,32.7676 Z M46.4696,33.7616 L46.1756,33.5956 L47.2946,31.6256 L48.2936,32.1926 L48.0966,32.5386 L47.3916,32.1386 L47.1346,32.5916 L47.7506,32.9416 L47.5546,33.2876 L46.9376,32.9376 L46.4696,33.7616 Z M44.7306,31.0286 L45.0406,31.1416 C45.1966,31.1976 45.2576,31.3246 45.1786,31.5436 C45.0986,31.7626 44.9656,31.8316 44.8106,31.7746 L44.4996,31.6626 L44.7306,31.0286 Z M44.3696,32.0186 L44.7066,32.1416 C45.0596,32.2706 45.3256,32.1586 45.5066,31.6626 C45.6736,31.2026 45.5466,30.9076 45.2266,30.7916 L44.5286,30.5376 L43.7526,32.6686 L44.0886,32.7906 L44.3696,32.0186 Z" id="Fill-1" fill="#201E1E" mask="url(#mask-2)"></path>
                    </g>
                </g>
            </g>
        </g>
    </g>
</svg>